<mxfile host="app.diagrams.net" modified="2022-02-14T19:21:09.487Z" agent="5.0 (Windows NT 10.0; Win64; x64) AppleWebKit/537.36 (KHTML, like Gecko) Chrome/98.0.4758.82 Safari/537.36" etag="Iy2t5icgQIMkjB3yfWT0" version="16.5.6" type="github">
  <diagram id="cHBiumMVsDLEnkVLnERu" name="Page-1">
    <mxGraphModel dx="1102" dy="614" grid="1" gridSize="10" guides="1" tooltips="1" connect="1" arrows="1" fold="1" page="1" pageScale="1" pageWidth="827" pageHeight="1169" math="0" shadow="0">
      <root>
        <mxCell id="0" />
        <mxCell id="1" parent="0" />
        <mxCell id="zZFrmviFBhTEKp5q0vqp-4" value="" style="edgeStyle=orthogonalEdgeStyle;rounded=0;orthogonalLoop=1;jettySize=auto;html=1;" edge="1" parent="1" source="zZFrmviFBhTEKp5q0vqp-1" target="zZFrmviFBhTEKp5q0vqp-2">
          <mxGeometry relative="1" as="geometry" />
        </mxCell>
        <mxCell id="zZFrmviFBhTEKp5q0vqp-1" value="Start" style="ellipse;whiteSpace=wrap;html=1;aspect=fixed;" vertex="1" parent="1">
          <mxGeometry x="374" width="80" height="80" as="geometry" />
        </mxCell>
        <mxCell id="zZFrmviFBhTEKp5q0vqp-2" value="A,B,C" style="rounded=1;whiteSpace=wrap;html=1;" vertex="1" parent="1">
          <mxGeometry x="354" y="130" width="120" height="60" as="geometry" />
        </mxCell>
        <mxCell id="zZFrmviFBhTEKp5q0vqp-13" value="" style="edgeStyle=orthogonalEdgeStyle;rounded=0;orthogonalLoop=1;jettySize=auto;html=1;" edge="1" parent="1" source="zZFrmviFBhTEKp5q0vqp-5" target="zZFrmviFBhTEKp5q0vqp-12">
          <mxGeometry relative="1" as="geometry" />
        </mxCell>
        <mxCell id="zZFrmviFBhTEKp5q0vqp-17" value="" style="edgeStyle=orthogonalEdgeStyle;rounded=0;orthogonalLoop=1;jettySize=auto;html=1;entryX=0.5;entryY=0;entryDx=0;entryDy=0;" edge="1" parent="1" source="zZFrmviFBhTEKp5q0vqp-5" target="zZFrmviFBhTEKp5q0vqp-9">
          <mxGeometry relative="1" as="geometry" />
        </mxCell>
        <mxCell id="zZFrmviFBhTEKp5q0vqp-5" value="A&amp;gt;B&amp;gt;C" style="rhombus;whiteSpace=wrap;html=1;" vertex="1" parent="1">
          <mxGeometry x="372" y="230" width="84" height="80" as="geometry" />
        </mxCell>
        <mxCell id="zZFrmviFBhTEKp5q0vqp-16" value="" style="edgeStyle=orthogonalEdgeStyle;rounded=0;orthogonalLoop=1;jettySize=auto;html=1;" edge="1" parent="1" source="zZFrmviFBhTEKp5q0vqp-6" target="zZFrmviFBhTEKp5q0vqp-15">
          <mxGeometry relative="1" as="geometry">
            <Array as="points">
              <mxPoint x="210" y="545" />
            </Array>
          </mxGeometry>
        </mxCell>
        <mxCell id="zZFrmviFBhTEKp5q0vqp-6" value="A" style="rounded=1;whiteSpace=wrap;html=1;" vertex="1" parent="1">
          <mxGeometry x="150" y="400" width="120" height="60" as="geometry" />
        </mxCell>
        <mxCell id="zZFrmviFBhTEKp5q0vqp-20" value="" style="edgeStyle=orthogonalEdgeStyle;rounded=0;orthogonalLoop=1;jettySize=auto;html=1;entryX=0.5;entryY=0;entryDx=0;entryDy=0;" edge="1" parent="1" source="zZFrmviFBhTEKp5q0vqp-7" target="zZFrmviFBhTEKp5q0vqp-14">
          <mxGeometry relative="1" as="geometry" />
        </mxCell>
        <mxCell id="zZFrmviFBhTEKp5q0vqp-7" value="B&lt;span style=&quot;color: rgba(0 , 0 , 0 , 0) ; font-family: monospace ; font-size: 0px&quot;&gt;%3CmxGraphModel%3E%3Croot%3E%3CmxCell%20id%3D%220%22%2F%3E%3CmxCell%20id%3D%221%22%20parent%3D%220%22%2F%3E%3CmxCell%20id%3D%222%22%20value%3D%22A%22%20style%3D%22rounded%3D1%3BwhiteSpace%3Dwrap%3Bhtml%3D1%3B%22%20vertex%3D%221%22%20parent%3D%221%22%3E%3CmxGeometry%20x%3D%22150%22%20y%3D%22400%22%20width%3D%22120%22%20height%3D%2260%22%20as%3D%22geometry%22%2F%3E%3C%2FmxCell%3E%3C%2Froot%3E%3C%2FmxGraphModel%3E&lt;/span&gt;" style="rounded=1;whiteSpace=wrap;html=1;" vertex="1" parent="1">
          <mxGeometry x="354" y="400" width="120" height="60" as="geometry" />
        </mxCell>
        <mxCell id="zZFrmviFBhTEKp5q0vqp-22" value="" style="edgeStyle=orthogonalEdgeStyle;rounded=0;orthogonalLoop=1;jettySize=auto;html=1;" edge="1" parent="1" source="zZFrmviFBhTEKp5q0vqp-8" target="zZFrmviFBhTEKp5q0vqp-21">
          <mxGeometry relative="1" as="geometry">
            <Array as="points">
              <mxPoint x="600" y="545" />
            </Array>
          </mxGeometry>
        </mxCell>
        <mxCell id="zZFrmviFBhTEKp5q0vqp-8" value="C" style="rounded=1;whiteSpace=wrap;html=1;" vertex="1" parent="1">
          <mxGeometry x="552" y="515" width="120" height="60" as="geometry" />
        </mxCell>
        <mxCell id="zZFrmviFBhTEKp5q0vqp-19" value="" style="edgeStyle=orthogonalEdgeStyle;rounded=0;orthogonalLoop=1;jettySize=auto;html=1;exitX=0;exitY=0.5;exitDx=0;exitDy=0;" edge="1" parent="1" source="zZFrmviFBhTEKp5q0vqp-9">
          <mxGeometry relative="1" as="geometry">
            <mxPoint x="470" y="430" as="targetPoint" />
            <Array as="points">
              <mxPoint x="500" y="340" />
              <mxPoint x="500" y="430" />
            </Array>
          </mxGeometry>
        </mxCell>
        <mxCell id="zZFrmviFBhTEKp5q0vqp-24" value="" style="edgeStyle=orthogonalEdgeStyle;rounded=0;orthogonalLoop=1;jettySize=auto;html=1;" edge="1" parent="1" source="zZFrmviFBhTEKp5q0vqp-9" target="zZFrmviFBhTEKp5q0vqp-10">
          <mxGeometry relative="1" as="geometry" />
        </mxCell>
        <mxCell id="zZFrmviFBhTEKp5q0vqp-9" value="B&amp;gt;A&amp;gt;C" style="rhombus;whiteSpace=wrap;html=1;" vertex="1" parent="1">
          <mxGeometry x="530" y="300" width="84" height="80" as="geometry" />
        </mxCell>
        <mxCell id="zZFrmviFBhTEKp5q0vqp-23" value="" style="edgeStyle=orthogonalEdgeStyle;rounded=0;orthogonalLoop=1;jettySize=auto;html=1;exitX=0.5;exitY=1;exitDx=0;exitDy=0;" edge="1" parent="1" source="zZFrmviFBhTEKp5q0vqp-10" target="zZFrmviFBhTEKp5q0vqp-8">
          <mxGeometry relative="1" as="geometry">
            <Array as="points">
              <mxPoint x="600" y="430" />
            </Array>
          </mxGeometry>
        </mxCell>
        <mxCell id="zZFrmviFBhTEKp5q0vqp-10" value="C&amp;gt;A&amp;gt;B" style="rhombus;whiteSpace=wrap;html=1;" vertex="1" parent="1">
          <mxGeometry x="672" y="350" width="84" height="80" as="geometry" />
        </mxCell>
        <mxCell id="zZFrmviFBhTEKp5q0vqp-11" value="" style="edgeStyle=orthogonalEdgeStyle;rounded=0;orthogonalLoop=1;jettySize=auto;html=1;exitX=0.5;exitY=1;exitDx=0;exitDy=0;entryX=0.5;entryY=0;entryDx=0;entryDy=0;" edge="1" parent="1" source="zZFrmviFBhTEKp5q0vqp-2" target="zZFrmviFBhTEKp5q0vqp-5">
          <mxGeometry relative="1" as="geometry">
            <mxPoint x="424" y="90" as="sourcePoint" />
            <mxPoint x="424" y="140" as="targetPoint" />
          </mxGeometry>
        </mxCell>
        <mxCell id="zZFrmviFBhTEKp5q0vqp-12" value="" style="shape=waypoint;sketch=0;size=6;pointerEvents=1;points=[];fillColor=default;resizable=0;rotatable=0;perimeter=centerPerimeter;snapToPoint=1;" vertex="1" parent="1">
          <mxGeometry x="190" y="380" width="40" height="40" as="geometry" />
        </mxCell>
        <mxCell id="zZFrmviFBhTEKp5q0vqp-14" value="Finish" style="ellipse;whiteSpace=wrap;html=1;aspect=fixed;" vertex="1" parent="1">
          <mxGeometry x="374" y="525" width="80" height="80" as="geometry" />
        </mxCell>
        <mxCell id="zZFrmviFBhTEKp5q0vqp-15" value="" style="shape=waypoint;sketch=0;size=6;pointerEvents=1;points=[];fillColor=default;resizable=0;rotatable=0;perimeter=centerPerimeter;snapToPoint=1;rounded=1;" vertex="1" parent="1">
          <mxGeometry x="360" y="525" width="40" height="40" as="geometry" />
        </mxCell>
        <mxCell id="zZFrmviFBhTEKp5q0vqp-21" value="" style="shape=waypoint;sketch=0;size=6;pointerEvents=1;points=[];fillColor=default;resizable=0;rotatable=0;perimeter=centerPerimeter;snapToPoint=1;rounded=1;" vertex="1" parent="1">
          <mxGeometry x="434" y="525" width="40" height="40" as="geometry" />
        </mxCell>
        <mxCell id="zZFrmviFBhTEKp5q0vqp-26" value="&lt;font style=&quot;font-size: 26px&quot;&gt;+&lt;/font&gt;" style="text;html=1;resizable=0;autosize=1;align=center;verticalAlign=middle;points=[];fillColor=none;strokeColor=none;rounded=0;" vertex="1" parent="1">
          <mxGeometry x="290" y="250" width="30" height="20" as="geometry" />
        </mxCell>
        <mxCell id="zZFrmviFBhTEKp5q0vqp-27" value="&lt;font style=&quot;font-size: 26px&quot;&gt;+&lt;/font&gt;" style="text;html=1;resizable=0;autosize=1;align=center;verticalAlign=middle;points=[];fillColor=none;strokeColor=none;rounded=0;" vertex="1" parent="1">
          <mxGeometry x="500" y="320" width="30" height="20" as="geometry" />
        </mxCell>
        <mxCell id="zZFrmviFBhTEKp5q0vqp-28" value="&lt;font style=&quot;font-size: 26px&quot;&gt;-&lt;/font&gt;" style="text;html=1;resizable=0;autosize=1;align=center;verticalAlign=middle;points=[];fillColor=none;strokeColor=none;rounded=0;" vertex="1" parent="1">
          <mxGeometry x="505" y="250" width="20" height="20" as="geometry" />
        </mxCell>
        <mxCell id="zZFrmviFBhTEKp5q0vqp-29" value="&lt;font style=&quot;font-size: 26px&quot;&gt;-&lt;/font&gt;" style="text;html=1;resizable=0;autosize=1;align=center;verticalAlign=middle;points=[];fillColor=none;strokeColor=none;rounded=0;" vertex="1" parent="1">
          <mxGeometry x="614" y="320" width="20" height="20" as="geometry" />
        </mxCell>
        <mxCell id="zZFrmviFBhTEKp5q0vqp-30" value="&lt;font style=&quot;font-size: 26px&quot;&gt;+&lt;/font&gt;" style="text;html=1;resizable=0;autosize=1;align=center;verticalAlign=middle;points=[];fillColor=none;strokeColor=none;rounded=0;" vertex="1" parent="1">
          <mxGeometry x="630" y="410" width="30" height="20" as="geometry" />
        </mxCell>
        <mxCell id="zZFrmviFBhTEKp5q0vqp-31" value="A=B=C" style="rounded=1;whiteSpace=wrap;html=1;" vertex="1" parent="1">
          <mxGeometry x="700" y="515" width="120" height="60" as="geometry" />
        </mxCell>
        <mxCell id="zZFrmviFBhTEKp5q0vqp-32" value="" style="edgeStyle=orthogonalEdgeStyle;rounded=0;orthogonalLoop=1;jettySize=auto;html=1;exitX=0.5;exitY=1;exitDx=0;exitDy=0;entryX=0.5;entryY=0;entryDx=0;entryDy=0;" edge="1" parent="1" source="zZFrmviFBhTEKp5q0vqp-10" target="zZFrmviFBhTEKp5q0vqp-31">
          <mxGeometry relative="1" as="geometry">
            <mxPoint x="724" y="440" as="sourcePoint" />
            <mxPoint x="760" y="460" as="targetPoint" />
            <Array as="points">
              <mxPoint x="760" y="430" />
            </Array>
          </mxGeometry>
        </mxCell>
        <mxCell id="zZFrmviFBhTEKp5q0vqp-33" value="&lt;font style=&quot;font-size: 26px&quot;&gt;-&lt;/font&gt;" style="text;html=1;resizable=0;autosize=1;align=center;verticalAlign=middle;points=[];fillColor=none;strokeColor=none;rounded=0;" vertex="1" parent="1">
          <mxGeometry x="740" y="410" width="20" height="20" as="geometry" />
        </mxCell>
      </root>
    </mxGraphModel>
  </diagram>
</mxfile>
